<?xml version="1.0" encoding="UTF-8"?>
<svg id="Layer_1" data-name="Layer 1" xmlns="http://www.w3.org/2000/svg" viewBox="0 0 366.82 366.82">
  <defs>
    <style>
      .cls-1 {
        fill: #fcd50b;
      }
    </style>
  </defs>
  <circle class="cls-1" cx="183.41" cy="183.41" r="183.41"/>
  <g>
    <path d="M152.91,169.49c-.07-1.79-.31-3.65-.73-5.54-1.17-5.27-3.93-9.92-8.19-13.83-4.54-4.16-10.03-6.46-16.32-6.85-3.15-.19-6.41.16-9.69,1.06-4.54,1.24-8.73,3.38-12.82,6.56-3.28,2.55-6.31,5.71-9.26,9.66-4.22,5.65-7.82,12.09-10.73,19.14-2.18,5.28-3.95,10.82-5.26,16.48-2.78-1.12-5.37-2.49-7.72-4.07l-.14-.1c-.35-.24-.72-.49-1.13-.71-2.02-1.08-4.24-.83-5.95.67-1.01.88-1.68,1.98-1.99,3.27-.13.52-.3,1.24-.23,2,.19,1.93,1.15,3.52,2.77,4.59l.55.37c.42.28.84.56,1.26.83,3.16,1.99,6.67,3.66,10.42,4.96-.06.52-.12,1.03-.2,1.55-.36,2.58-.58,5.3-.69,8.3-.12,3.44-.09,6.63.09,9.73.22,3.81.63,7.64,1.22,11.39.81,5.16,1.95,9.86,3.47,14.38.25.73.57,1.42.83,1.94.44.89,1.17,1.62,2.17,2.18.94.53,1.97.79,3.01.79.81,0,1.64-.16,2.44-.49,1.83-.75,3.28-2.27,3.79-3.98.42-1.43.22-2.82-.6-4-.24-.35-.43-.76-.62-1.34-.9-2.73-1.62-5.65-2.29-9.22-.42-2.25-.76-4.61-1.01-7.03-.3-2.84-.46-5.34-.51-7.65-.07-3.19,0-5.77.18-8.12.14-1.73.29-3.46.45-5.18.01-.13.03-.26.04-.39.37.04.73.09,1.1.14,1.31.16,2.66.33,4.02.43,2.89.21,5.79.24,8.61.08,3-.17,5.69-.45,8.23-.87,6.28-1.04,12.21-2.84,17.6-5.37,6.07-2.84,11.19-6.66,15.22-11.35,2.77-3.22,4.91-6.78,6.36-10.57,1.68-4.39,2.44-9.04,2.26-13.83ZM135.42,186c-2.34,2.88-5.31,5.3-9.1,7.41-4.2,2.34-8.9,4.07-13.98,5.16-4.3.92-8.73,1.36-13.17,1.3-2.45-.03-5.01-.24-7.59-.61,1.72-6.97,4.16-13.78,7.27-20.23,1.88-3.9,3.58-6.98,5.38-9.68,2.16-3.25,4.42-5.9,6.91-8.1,3.02-2.68,6.42-4.58,10.1-5.65,1.67-.49,3.21-.74,4.7-.76,4.98-.07,8.84,1.77,11.7,5.64,1.44,1.94,2.4,4.26,2.86,6.88,1.21,6.84-.46,12.94-5.08,18.64Z"/>
    <path d="M168.83,168.54c-.98,1.12-1.99,2.27-2.7,3.7-3.43,5.61-4.56,11.14-3.44,16.85.91,5.86,4,10.07,10.01,13.63,3.09,1.83,7.03,2.46,9.1,2.68.88.09,1.77.14,2.67.14,2.65,0,5.37-.39,7.99-1.15,3.53-1.02,6.14-2.87,8.91-4.83l1.07-.75c.14-.1.3-.24.48-.4.03.02.06.04.09.06,1.33.82,2.67,1.69,3.96,2.54.6.39,1.2.78,1.8,1.17l.21.14c.29.2.65.45,1.1.61,1.39.5,3.49.97,5.74-.61,1.2-.85,1.98-2,2.31-3.43.62-2.69-.61-4.44-1.59-5.52-.32-.35-.68-.58-.97-.76-.08-.05-.15-.1-.23-.15-.95-.66-1.94-1.29-2.93-1.93-.58-.37-1.16-.74-1.73-1.12l.4-.78c1.7-3.25,3.46-6.61,3.76-10.79.35-4.82-.78-8.95-1.85-11.02-.84-1.62-2.58-4.99-7-4.83-2.68.11-4.73,1.92-4.98,4.41-.2,2,.72,3.74,1.26,4.78l.19.36c.42.84.89,1.85,1.12,3.12.51,2.79-1.67,6.74-2.58,7.76-.1.12-.19.22-.27.3-2.79-1.83-5.54-4-8.61-6.76-2.53-2.5-4.73-4.86-6.86-7.35,1.49-1.08,3.1-2.46,4.54-3.69.44-.38.86-.74,1.26-1.08,2.35-1.99,4.7-4.23,6.27-6.02,1.3-1.47,4.03-5.11,5.08-8.36.64-1.97,1.95-7,.46-11.26-3.05-8.47-9.7-13.1-18.62-13-5.66.18-8.87,2.34-11.43,4.36-2.85,2.23-4.94,5.39-6.4,9.65-1.22,3.56-1.59,7.35-1.18,12.3.31,3.72,1.35,7.47,3.25,11.71.35.95.8,1.85,1.24,2.73.16.32.32.64.47.95-.04.04-.07.09-.11.13-.4.51-.83,1-1.26,1.5ZM191.49,141.99c.32,1.08.19,2.46-.4,4.24-.33,1-1.14,2.1-1.84,3.07l-.12.16c-1.07,1.47-2.52,2.84-3.91,4.16l-.17.16c-.91.86-1.8,1.57-2.75,2.32-.51.4-1.02.81-1.56,1.25-.43.35-.9.73-1.38,1.1-.93-2.5-1.75-5-2.11-7.67-.38-2.73-.36-4.77.06-6.6.6-2.62,1.49-4.36,2.81-5.49,1.43-1.23,2.98-1.84,4.62-1.84.68,0,1.38.11,2.09.32,2.41.72,3.89,2.25,4.66,4.81ZM178.7,160.87h0s0,0,0,0ZM177.03,176.99c.36.35.71.69,1.01,1.03l.34.38c.56.63,1.09,1.23,1.67,1.85.68.74,1.38,1.46,2.08,2.18l.07.07c.46.47.94.89,1.4,1.3.31.27.62.54.91.82.86.81,1.63,1.51,2.35,2.13.76.64,1.57,1.29,2.48,1.97.36.27.7.56,1.03.85.43.37.87.74,1.36,1.1.31.22.64.47.97.72-2.31,1.31-4.16,2.08-6.69,2.33-3.27.32-5.56-.04-7.65-1.19-2.19-1.21-3.55-3.25-3.94-5.9-.49-3.34.32-5.62,2.09-8.91.11-.2.29-.46.5-.74Z"/>
    <path d="M307.3,153.43c-.57-4.34-1.33-8.16-2.3-11.67-.58-2.07-1.26-4.14-1.91-6.14l-.06-.19c-.78-2.38-3.06-3.91-5.65-3.86-2.97.09-5.42,2.51-5.46,5.4-.01,1.03.27,1.92.55,2.74,1.55,4.39,2.69,9.07,3.38,13.92.48,3.4.72,6.87.7,10.29-.03,3.11-.16,5.68-.43,8.1-.39,3.57-1.01,7.02-1.85,10.26-3.2,12.4-9.31,23.47-18.17,32.91-8.47,9.03-18.75,15.81-30.54,20.16-4.52,1.67-9.28,2.93-14.15,3.76-3.33.57-6.42.91-9.44,1.04-3.55.16-6.79.12-9.9-.11-2.98-.22-5.72-.56-8.39-1.04-5.35-.96-10.58-2.45-15.54-4.42-7.08-2.82-13.67-6.61-19.61-11.26-4.03-3.16-7.75-6.73-11.06-10.59l-.2-.24c-.28-.34-.58-.68-.93-1.02-1.44-1.37-3.46-1.89-5.41-1.4-1.89.48-3.37,1.85-3.96,3.67-.63,1.94-.23,3.82,1.14,5.43,2.74,3.23,5.62,6.22,8.57,8.88,5.1,4.6,10.73,8.61,16.73,11.93,7.94,4.39,16.5,7.57,25.44,9.45,3.37.71,6.19,1.15,8.86,1.4l1.3.12c1.67.16,3.4.32,5.13.38,1.23.04,2.65.07,4.17.07,1.79,0,3.73-.05,5.68-.19,2.56-.18,4.7-.4,6.72-.67,3.54-.49,7.08-1.19,10.52-2.09,8.88-2.33,17.3-5.94,25.02-10.72,8.05-5,15.21-11.17,21.28-18.34,5.74-6.79,10.38-14.33,13.77-22.42,2.88-6.85,4.84-14,5.82-21.24.49-3.62.73-6.66.75-9.56.03-3.83,0-8.29-.58-12.73Z"/>
    <path d="M217.97,155c.47.08.98.12,1.55.14,1.35.05,2.7.09,4.05.1h.98c1.74.03,3.55.04,5.34,0,2.11-.05,4.21-.14,6.36-.22l1.04-.04c-.27,1.61-.45,3.28-.54,4.97-.17,3.1-.14,5.65.12,8.03.31,2.98.87,5.55,1.69,7.86,3.07,8.63,8.97,14.86,17.54,18.5,1.07.45,2.26.85,3.55,1.17.47.12.94.18,1.39.18,1.39,0,2.68-.54,3.72-1.59,1.7-1.7,2.25-3.85,1.58-6.21-.47-1.67-1.66-2.91-3.44-3.59-.3-.11-.61-.21-.92-.31-.28-.09-.55-.18-.82-.28-5.38-2.11-9.14-5.9-11.18-11.28-1.13-2.98-1.57-6.27-1.39-10.35.09-2.06.32-4.23.69-6.64.09-.6.2-1.2.3-1.81,5.02-.76,10.02-1.87,14.87-3.29,5.95-1.75,11.64-4.01,16.9-6.7.37-.19.79-.41,1.2-.69,1.49-1.06,2.25-2.56,2.22-4.34-.04-2.53-1.84-4.95-4.27-5.75-.43-.14-.92-.23-1.49-.28-1.04-.09-2.07.13-3.22.69l-.56.27c-1.44.7-2.93,1.41-4.41,2.06-5.79,2.52-12.13,4.45-18.86,5.75l.14-.63c.41-1.88.82-3.77,1.26-5.65,1.53-6.6,3.17-12.59,5.02-18.32l.14-.42c.22-.66.44-1.34.61-2.05.46-1.91-.04-3.64-1.45-5.01-.62-.6-1.37-1.05-2.29-1.37-1.68-.59-3.5-.5-5.01.25-1.42.71-2.44,1.92-2.95,3.51l-.09.26c-3.56,10.91-6.21,21.1-8.12,31.16-2.12.13-4.24.26-6.37.38-.72.04-1.45.06-2.17.07h-.36c-2.36.01-4.71.02-7.07,0-.99,0-1.97-.03-2.96-.06-.61-.02-1.21-.03-1.82-.05-1.79-.06-4.24.93-5.16,3.77-.45,1.4-.41,2.8.14,4.18.81,2.04,2.37,3.31,4.51,3.65Z"/>
  </g>
  <path d="M313.63,211.77c1.28,1.28,1.93,2.83,1.93,4.65s-.66,3.44-1.97,4.72c-1.28,1.24-2.81,1.85-4.6,1.85s-3.41-.63-4.67-1.9c-1.27-1.27-1.9-2.82-1.9-4.67s.68-3.52,2.05-4.79c1.28-1.19,2.79-1.78,4.52-1.78s3.36.64,4.65,1.93ZM308.99,210.97c-1.51,0-2.8.55-3.86,1.64-1.05,1.07-1.57,2.34-1.57,3.81s.53,2.81,1.6,3.88c1.06,1.06,2.34,1.6,3.83,1.6s2.77-.54,3.83-1.61c1.06-1.08,1.59-2.37,1.59-3.87s-.53-2.73-1.58-3.81c-1.06-1.09-2.34-1.64-3.83-1.64ZM308.02,217.49v2.58h-1.91v-7.29c.45,0,1.13,0,2.03,0s1.4,0,1.5.01c.58.04,1.06.17,1.44.37.65.36.97.94.97,1.74,0,.61-.17,1.06-.51,1.33-.34.27-.76.44-1.26.49.46.1.8.23,1.03.42.43.34.64.89.64,1.63v.65c0,.07,0,.14.01.21s.03.14.05.21l.06.21h-1.82c-.06-.23-.1-.57-.12-1.01s-.06-.74-.12-.89c-.1-.26-.27-.43-.54-.54-.14-.06-.36-.1-.65-.12l-.42-.03h-.4ZM308.76,216.18c.45,0,.79-.09,1.04-.27s.37-.47.37-.86-.2-.67-.59-.83c-.26-.1-.63-.15-1.11-.15h-.46v2.11h.74Z"/>
</svg>